<svg xmlns="http://www.w3.org/2000/svg" width="260" height="260" viewBox="0 0 260 260" role="img" aria-label="Dummy QR placeholder">
  <rect width="260" height="260" fill="#ffffff"/>
  <rect x="0" y="0" width="260" height="260" fill="#111111"/>
  <rect x="14" y="14" width="232" height="232" fill="#ffffff"/>

  <rect x="26" y="26" width="56" height="56" fill="#111111"/>
  <rect x="36" y="36" width="36" height="36" fill="#ffffff"/>
  <rect x="44" y="44" width="20" height="20" fill="#111111"/>

  <rect x="178" y="26" width="56" height="56" fill="#111111"/>
  <rect x="188" y="36" width="36" height="36" fill="#ffffff"/>
  <rect x="196" y="44" width="20" height="20" fill="#111111"/>

  <rect x="26" y="178" width="56" height="56" fill="#111111"/>
  <rect x="36" y="188" width="36" height="36" fill="#ffffff"/>
  <rect x="44" y="196" width="20" height="20" fill="#111111"/>

  <rect x="104" y="104" width="10" height="10" fill="#111111"/>
  <rect x="120" y="104" width="10" height="10" fill="#111111"/>
  <rect x="136" y="104" width="10" height="10" fill="#111111"/>
  <rect x="152" y="104" width="10" height="10" fill="#111111"/>

  <rect x="104" y="120" width="10" height="10" fill="#111111"/>
  <rect x="136" y="120" width="10" height="10" fill="#111111"/>
  <rect x="168" y="120" width="10" height="10" fill="#111111"/>

  <rect x="104" y="136" width="10" height="10" fill="#111111"/>
  <rect x="120" y="136" width="10" height="10" fill="#111111"/>
  <rect x="152" y="136" width="10" height="10" fill="#111111"/>
  <rect x="168" y="136" width="10" height="10" fill="#111111"/>

  <rect x="104" y="152" width="10" height="10" fill="#111111"/>
  <rect x="136" y="152" width="10" height="10" fill="#111111"/>
  <rect x="152" y="152" width="10" height="10" fill="#111111"/>

  <text x="130" y="249" text-anchor="middle" font-family="Arial, Helvetica, sans-serif" font-size="13" fill="#111111">DUMMY QR</text>
</svg>
